<svg xmlns="http://www.w3.org/2000/svg" viewBox="0 0 100 100">
  <defs>
    <radialGradient id="crabGrad">
      <stop offset="0%" style="stop-color:#FF6B6B;stop-opacity:1" />
      <stop offset="100%" style="stop-color:#CC5555;stop-opacity:1" />
    </radialGradient>
    <filter id="shadow">
      <feDropShadow dx="2" dy="2" stdDeviation="2" flood-opacity="0.3"/>
    </filter>
  </defs>
  <!-- Crab body -->
  <ellipse cx="50" cy="50" rx="25" ry="20" fill="url(#crabGrad)" filter="url(#shadow)"/>
  <!-- Crab claws -->
  <path d="M20 45 Q10 40 5 45 Q10 50 20 45" fill="#CC5555" stroke="#AA4444" stroke-width="1"/>
  <path d="M80 45 Q90 40 95 45 Q90 50 80 45" fill="#CC5555" stroke="#AA4444" stroke-width="1"/>
  <!-- Crab legs -->
  <path d="M30 55 L20 65" stroke="#CC5555" stroke-width="3"/>
  <path d="M35 58 L25 68" stroke="#CC5555" stroke-width="3"/>
  <path d="M70 55 L80 65" stroke="#CC5555" stroke-width="3"/>
  <path d="M65 58 L75 68" stroke="#CC5555" stroke-width="3"/>
  <!-- Crab eyes -->
  <circle cx="40" cy="45" r="4" fill="white"/>
  <circle cx="60" cy="45" r="4" fill="white"/>
  <circle cx="40" cy="45" r="2" fill="black"/>
  <circle cx="60" cy="45" r="2" fill="black"/>
  <!-- Pinch marks -->
  <path d="M15 20 L10 15" stroke="#FF0000" stroke-width="2" opacity="0.7"/>
  <path d="M85 20 L90 15" stroke="#FF0000" stroke-width="2" opacity="0.7"/>
</svg>
