<svg xmlns="http://www.w3.org/2000/svg" viewBox="0 0 100 100" width="100" height="100">
  <path d="M50 10 C30 10 15 25 15 45 C15 55 20 65 25 70 L25 80 C25 85 30 90 35 90 L65 90 C70 90 75 85 75 80 L75 70 C80 65 85 55 85 45 C85 25 70 10 50 10 Z" fill="white" stroke="#ccc" stroke-width="1"/>
  <circle cx="40" cy="40" r="5" fill="black"/>
  <circle cx="60" cy="40" r="5" fill="black"/>
  <path d="M45 50 L50 55 L55 50" stroke="black" stroke-width="2" fill="none"/>
  <rect x="47" y="60" width="2" height="8" fill="black"/>
  <rect x="51" y="60" width="2" height="8" fill="black"/>
</svg>
